<?xml version="1.0" standalone="no"?><svg version="1.1" xmlns="http://www.w3.org/2000/svg" width="702.16943359375" height="106">
<style>
  @font-face {
    font-family: 'Open Sans';
    font-weight: bold;
  }
  </style><svg x="177.544921875" y="0" width="100.62451171875" height="74"><path d="M22,48L42,48L57.62451171875,48L77.62451171875,48L77.62451171875,48L57.62451171875,48L42,48L22,48ZM32,44L32,52M77.62451171875,44L67.62451171875,48L77.62451171875,52" fill="none" stroke="#9B9CA4" stroke-width="1"></path><text x="25" y="45" style="font-family: &quot;Open Sans&quot;, sans-serif; font-size: 14px; font-weight: normal; fill: transparent;">1</text><text x="66.91357421875" y="45" style="font-family: &quot;Open Sans&quot;, sans-serif; font-size: 14px; font-weight: normal; fill: transparent;">*</text></svg><svg x="418.21435546875" y="0" width="109.83056640625" height="106"><path d="M86.83056640625,48L66.83056640625,48L60.6229248046875,48Q54.415283203125,48,54.415283203125,54.2076416015625L54.415283203125,73.7923583984375Q54.415283203125,80,48.2076416015625,80L42,80L22,80L22,80L42,80L48.2076416015625,80Q54.415283203125,80,54.415283203125,73.7923583984375L54.415283203125,54.2076416015625Q54.415283203125,48,60.6229248046875,48L66.83056640625,48L86.83056640625,48ZM76.83056640625,44L76.83056640625,52M22,76L32,80L22,84" fill="none" stroke="#9B9CA4" stroke-width="1"></path><text x="76.11962890625" y="45" style="font-family: &quot;Open Sans&quot;, sans-serif; font-size: 14px; font-weight: normal; fill: transparent;">1</text><text x="25" y="77" style="font-family: &quot;Open Sans&quot;, sans-serif; font-size: 14px; font-weight: normal; fill: transparent;">*</text></svg><svg x="0" y="0"><rect x="0" y="0" width="199.544921875" height="32" fill="#42b983"></rect><text x="10" y="19.25" style="font-family: &quot;Open Sans&quot;, sans-serif; font-size: 13px; font-weight: bold; fill: rgb(255, 255, 255);">students</text></svg><svg x="0" y="32"><rect x="0" y="0" width="199.544921875" height="32" fill="#F2F2F2"></rect><text x="10" y="19.25" style="font-family: &quot;Open Sans&quot;, sans-serif; font-size: 13px; font-weight: bold; fill: rgb(111, 111, 111);">student_id</text><path transform="translate(82.28173828125,9.25)" fill="#6F6F6F" d="M 6.5625 0.9844 C 8.1935 0.9844 9.5156 2.3065 9.5156 3.9375 C 9.5156 5.5685 8.1935 6.8906 6.5625 6.8906 C 6.1735 6.8906 5.8022 6.8153 5.462 6.6786 L 4.5938 7.5469 H 3.9375 V 8.5313 H 2.9531 V 9.5156 H 0.9844 V 7.5469 L 3.736 4.7952 C 3.6518 4.5171 3.6092 4.2281 3.6094 3.9375 C 3.6094 2.3065 4.9315 0.9844 6.5625 0.9844 Z M 6.5625 0 C 4.388 0 2.625 1.7627 2.625 3.9375 C 2.625 4.1186 2.6373 4.2989 2.6619 4.4772 L 0.1441 6.995 C 0.0519 7.0873 0 7.2125 0 7.343 L 0 10.0078 C 0 10.2797 0.2204 10.5 0.4922 10.5 H 3.4453 C 3.7171 10.5 3.9375 10.2797 3.9375 10.0078 V 9.5156 H 4.4297 C 4.7015 9.5156 4.9219 9.2953 4.9219 9.0234 V 8.6133 L 5.7432 7.7895 C 6.011 7.8464 6.2848 7.875 6.5625 7.875 C 8.737 7.875 10.5 6.1123 10.5 3.9375 C 10.5 1.763 8.7373 0 6.5625 0 Z M 6.5625 2.9531 C 6.5625 3.4968 7.0032 3.9375 7.5469 3.9375 C 8.0905 3.9375 8.5313 3.4968 8.5313 2.9531 C 8.5313 2.4095 8.0905 1.9688 7.5469 1.9688 C 7.0032 1.9688 6.5625 2.4095 6.5625 2.9531 Z"></path><text x="142.78173828125" y="19.25" style="font-family: &quot;Open Sans&quot;, sans-serif; font-size: 13px; font-weight: bold; fill: rgb(153, 153, 153);">integer</text></svg><svg x="0" y="64"><rect x="0" y="0" width="199.544921875" height="32" fill="#F2F2F2"></rect><text x="10" y="19.25" style="font-family: &quot;Open Sans&quot;, sans-serif; font-size: 13px; fill: rgb(111, 111, 111);">name</text><text x="143.7783203125" y="19.25" style="font-family: &quot;Open Sans&quot;, sans-serif; font-size: 13px; fill: rgb(153, 153, 153);">varchar</text></svg><svg x="505.044921875" y="0"><rect x="0" y="0" width="192.12451171875" height="32" fill="#42b983"></rect><text x="10" y="19.25" style="font-family: &quot;Open Sans&quot;, sans-serif; font-size: 13px; font-weight: bold; fill: rgb(255, 255, 255);">courses</text></svg><svg x="505.044921875" y="32"><rect x="0" y="0" width="192.12451171875" height="32" fill="#F2F2F2"></rect><text x="10" y="19.25" style="font-family: &quot;Open Sans&quot;, sans-serif; font-size: 13px; font-weight: bold; fill: rgb(111, 111, 111);">course_id</text><path transform="translate(74.861328125,9.25)" fill="#6F6F6F" d="M 6.5625 0.9844 C 8.1935 0.9844 9.5156 2.3065 9.5156 3.9375 C 9.5156 5.5685 8.1935 6.8906 6.5625 6.8906 C 6.1735 6.8906 5.8022 6.8153 5.462 6.6786 L 4.5938 7.5469 H 3.9375 V 8.5313 H 2.9531 V 9.5156 H 0.9844 V 7.5469 L 3.736 4.7952 C 3.6518 4.5171 3.6092 4.2281 3.6094 3.9375 C 3.6094 2.3065 4.9315 0.9844 6.5625 0.9844 Z M 6.5625 0 C 4.388 0 2.625 1.7627 2.625 3.9375 C 2.625 4.1186 2.6373 4.2989 2.6619 4.4772 L 0.1441 6.995 C 0.0519 7.0873 0 7.2125 0 7.343 L 0 10.0078 C 0 10.2797 0.2204 10.5 0.4922 10.5 H 3.4453 C 3.7171 10.5 3.9375 10.2797 3.9375 10.0078 V 9.5156 H 4.4297 C 4.7015 9.5156 4.9219 9.2953 4.9219 9.0234 V 8.6133 L 5.7432 7.7895 C 6.011 7.8464 6.2848 7.875 6.5625 7.875 C 8.737 7.875 10.5 6.1123 10.5 3.9375 C 10.5 1.763 8.7373 0 6.5625 0 Z M 6.5625 2.9531 C 6.5625 3.4968 7.0032 3.9375 7.5469 3.9375 C 8.0905 3.9375 8.5313 3.4968 8.5313 2.9531 C 8.5313 2.4095 8.0905 1.9688 7.5469 1.9688 C 7.0032 1.9688 6.5625 2.4095 6.5625 2.9531 Z"></path><text x="135.361328125" y="19.25" style="font-family: &quot;Open Sans&quot;, sans-serif; font-size: 13px; font-weight: bold; fill: rgb(153, 153, 153);">integer</text></svg><svg x="505.044921875" y="64"><rect x="0" y="0" width="192.12451171875" height="32" fill="#F2F2F2"></rect><text x="10" y="19.25" style="font-family: &quot;Open Sans&quot;, sans-serif; font-size: 13px; fill: rgb(111, 111, 111);">name</text><text x="136.35791015625" y="19.25" style="font-family: &quot;Open Sans&quot;, sans-serif; font-size: 13px; fill: rgb(153, 153, 153);">varchar</text></svg><svg x="255.16943359375" y="0"><rect x="0" y="0" width="185.044921875" height="32" fill="#42b983"></rect><text x="10" y="19.25" style="font-family: &quot;Open Sans&quot;, sans-serif; font-size: 13px; font-weight: bold; fill: rgb(255, 255, 255);">student_courses</text></svg><svg x="255.16943359375" y="32"><rect x="0" y="0" width="185.044921875" height="32" fill="#F2F2F2"></rect><text x="10" y="19.25" style="font-family: &quot;Open Sans&quot;, sans-serif; font-size: 13px; fill: rgb(111, 111, 111);">student_id</text><text x="132.185546875" y="19.25" style="font-family: &quot;Open Sans&quot;, sans-serif; font-size: 13px; fill: rgb(153, 153, 153);">integer</text></svg><svg x="255.16943359375" y="64"><rect x="0" y="0" width="185.044921875" height="32" fill="#F2F2F2"></rect><text x="10" y="19.25" style="font-family: &quot;Open Sans&quot;, sans-serif; font-size: 13px; fill: rgb(111, 111, 111);">course_id</text><text x="132.185546875" y="19.25" style="font-family: &quot;Open Sans&quot;, sans-serif; font-size: 13px; fill: rgb(153, 153, 153);">integer</text></svg></svg>