<?xml version="1.0" standalone="no"?><svg version="1.1" xmlns="http://www.w3.org/2000/svg" width="451.0654296875" height="128">
<style>
    @font-face {
        font-family: 'Open Sans';
        font-weight: bold;
    }
</style>
<svg x="174.03271484375" y="0" width="99" height="74"><path d="M22,48L42,48L56,48L76,48L76,48L56,48L42,48L22,48ZM32,44L32,52M66,44L66,52" fill="none" stroke="#9B9CA4" stroke-width="1"></path><text x="25" y="45" style="font-family: &quot;Open Sans&quot;, sans-serif; font-size: 14px; font-weight: normal; fill: transparent;">1</text><text x="64.9951171875" y="45" style="font-family: &quot;Open Sans&quot;, sans-serif; font-size: 14px; font-weight: normal; fill: transparent;">1</text></svg><svg x="0" y="0"><rect x="0" y="0" width="196.03271484375" height="32" fill="#42b983"></rect><text x="10" y="19.25" style="font-family: &quot;Open Sans&quot;, sans-serif; font-size: 13px; font-weight: bold; fill: rgb(255, 255, 255);">customers</text></svg><svg x="0" y="32"><rect x="0" y="0" width="196.03271484375" height="32" fill="#F2F2F2"></rect><text x="10" y="19.25" style="font-family: &quot;Open Sans&quot;, sans-serif; font-size: 13px; fill: rgb(111, 111, 111);">customer_id</text><text x="143.17333984375" y="19.25" style="font-family: &quot;Open Sans&quot;, sans-serif; font-size: 13px; fill: rgb(153, 153, 153);">integer</text></svg><svg x="0" y="64"><rect x="0" y="0" width="196.03271484375" height="32" fill="#F2F2F2"></rect><text x="10" y="19.25" style="font-family: &quot;Open Sans&quot;, sans-serif; font-size: 13px; fill: rgb(111, 111, 111);">name</text><text x="140.26611328125" y="19.25" style="font-family: &quot;Open Sans&quot;, sans-serif; font-size: 13px; fill: rgb(153, 153, 153);">varchar</text></svg><svg x="0" y="96"><rect x="0" y="0" width="196.03271484375" height="32" fill="#F2F2F2"></rect><text x="10" y="19.25" style="font-family: &quot;Open Sans&quot;, sans-serif; font-size: 13px; fill: rgb(111, 111, 111);">email</text><text x="140.26611328125" y="19.25" style="font-family: &quot;Open Sans&quot;, sans-serif; font-size: 13px; fill: rgb(153, 153, 153);">varchar</text></svg><svg x="250.03271484375" y="0"><rect x="0" y="0" width="196.03271484375" height="32" fill="#42b983"></rect><text x="10" y="19.25" style="font-family: &quot;Open Sans&quot;, sans-serif; font-size: 13px; font-weight: bold; fill: rgb(255, 255, 255);">documents</text></svg><svg x="250.03271484375" y="32"><rect x="0" y="0" width="196.03271484375" height="32" fill="#F2F2F2"></rect><text x="10" y="19.25" style="font-family: &quot;Open Sans&quot;, sans-serif; font-size: 13px; fill: rgb(111, 111, 111);">customer_id</text><text x="143.17333984375" y="19.25" style="font-family: &quot;Open Sans&quot;, sans-serif; font-size: 13px; fill: rgb(153, 153, 153);">integer</text></svg><svg x="250.03271484375" y="64"><rect x="0" y="0" width="196.03271484375" height="32" fill="#F2F2F2"></rect><text x="10" y="19.25" style="font-family: &quot;Open Sans&quot;, sans-serif; font-size: 13px; fill: rgb(111, 111, 111);">number</text><text x="140.26611328125" y="19.25" style="font-family: &quot;Open Sans&quot;, sans-serif; font-size: 13px; fill: rgb(153, 153, 153);">varchar</text></svg><svg x="250.03271484375" y="96"><rect x="0" y="0" width="196.03271484375" height="32" fill="#F2F2F2"></rect><text x="10" y="19.25" style="font-family: &quot;Open Sans&quot;, sans-serif; font-size: 13px; fill: rgb(111, 111, 111);">valid_to</text><text x="158.921875" y="19.25" style="font-family: &quot;Open Sans&quot;, sans-serif; font-size: 13px; fill: rgb(153, 153, 153);">date</text></svg></svg>