<?xml version="1.0" standalone="no"?><svg version="1.1" xmlns="http://www.w3.org/2000/svg" width="399.30126953125" height="160">
<style>
  @font-face {
    font-family: 'Open Sans';
    font-weight: normal;
  }
  @font-face {
    font-family: 'Open Sans';
    font-weight: bold;
  }
  </style>
  <svg x="154.388671875" y="0" width="95" height="106"><path d="M22,48L42,48L44.5,48Q47,48,47,50.5L47,77.5Q47,80,49.5,80L52,80L72,80L72,80L52,80L49.5,80Q47,80,47,77.5L47,50.5Q47,48,44.5,48L42,48L22,48ZM32,44L32,52M72,76L62,80L72,84" fill="none" stroke="#9B9CA4" stroke-width="1"></path><text x="25" y="45" style="font-family: &quot;Open Sans&quot;, sans-serif; font-size: 14px; font-weight: normal; fill: transparent;">1</text><text x="61.2890625" y="77" style="font-family: &quot;Open Sans&quot;, sans-serif; font-size: 14px; font-weight: normal; fill: transparent;">*</text></svg><svg x="0" y="0"><rect x="0" y="0" width="176.388671875" height="32" fill="#42b983"></rect><text x="10" y="19.25" style="font-family: &quot;Open Sans&quot;, sans-serif; font-size: 13px; font-weight: bold; fill: rgb(255, 255, 255);">blogs</text></svg><svg x="0" y="32"><rect x="0" y="0" width="176.388671875" height="32" fill="#F2F2F2"></rect><text x="10" y="19.25" style="font-family: &quot;Open Sans&quot;, sans-serif; font-size: 13px; font-weight: bold; fill: rgb(111, 111, 111);">blog_id</text><path transform="translate(59.12548828125,9.25)" fill="#6F6F6F" d="M 6.5625 0.9844 C 8.1935 0.9844 9.5156 2.3065 9.5156 3.9375 C 9.5156 5.5685 8.1935 6.8906 6.5625 6.8906 C 6.1735 6.8906 5.8022 6.8153 5.462 6.6786 L 4.5938 7.5469 H 3.9375 V 8.5313 H 2.9531 V 9.5156 H 0.9844 V 7.5469 L 3.736 4.7952 C 3.6518 4.5171 3.6092 4.2281 3.6094 3.9375 C 3.6094 2.3065 4.9315 0.9844 6.5625 0.9844 Z M 6.5625 0 C 4.388 0 2.625 1.7627 2.625 3.9375 C 2.625 4.1186 2.6373 4.2989 2.6619 4.4772 L 0.1441 6.995 C 0.0519 7.0873 0 7.2125 0 7.343 L 0 10.0078 C 0 10.2797 0.2204 10.5 0.4922 10.5 H 3.4453 C 3.7171 10.5 3.9375 10.2797 3.9375 10.0078 V 9.5156 H 4.4297 C 4.7015 9.5156 4.9219 9.2953 4.9219 9.0234 V 8.6133 L 5.7432 7.7895 C 6.011 7.8464 6.2848 7.875 6.5625 7.875 C 8.737 7.875 10.5 6.1123 10.5 3.9375 C 10.5 1.763 8.7373 0 6.5625 0 Z M 6.5625 2.9531 C 6.5625 3.4968 7.0032 3.9375 7.5469 3.9375 C 8.0905 3.9375 8.5313 3.4968 8.5313 2.9531 C 8.5313 2.4095 8.0905 1.9688 7.5469 1.9688 C 7.0032 1.9688 6.5625 2.4095 6.5625 2.9531 Z"></path><text x="119.62548828125" y="19.25" style="font-family: &quot;Open Sans&quot;, sans-serif; font-size: 13px; font-weight: bold; fill: rgb(153, 153, 153);">integer</text></svg><svg x="0" y="64"><rect x="0" y="0" width="176.388671875" height="32" fill="#F2F2F2"></rect><text x="10" y="19.25" style="font-family: &quot;Open Sans&quot;, sans-serif; font-size: 13px; fill: rgb(111, 111, 111);">name</text><text x="120.6220703125" y="19.25" style="font-family: &quot;Open Sans&quot;, sans-serif; font-size: 13px; fill: rgb(153, 153, 153);">varchar</text></svg><svg x="226.388671875" y="0"><rect x="0" y="0" width="167.91259765625" height="32" fill="#42b983"></rect><text x="10" y="19.25" style="font-family: &quot;Open Sans&quot;, sans-serif; font-size: 13px; font-weight: bold; fill: rgb(255, 255, 255);">posts</text></svg><svg x="226.388671875" y="32"><rect x="0" y="0" width="167.91259765625" height="32" fill="#F2F2F2"></rect><text x="10" y="19.25" style="font-family: &quot;Open Sans&quot;, sans-serif; font-size: 13px; font-weight: bold; fill: rgb(111, 111, 111);">post_id</text><path transform="translate(59.9189453125,9.25)" fill="#6F6F6F" d="M 6.5625 0.9844 C 8.1935 0.9844 9.5156 2.3065 9.5156 3.9375 C 9.5156 5.5685 8.1935 6.8906 6.5625 6.8906 C 6.1735 6.8906 5.8022 6.8153 5.462 6.6786 L 4.5938 7.5469 H 3.9375 V 8.5313 H 2.9531 V 9.5156 H 0.9844 V 7.5469 L 3.736 4.7952 C 3.6518 4.5171 3.6092 4.2281 3.6094 3.9375 C 3.6094 2.3065 4.9315 0.9844 6.5625 0.9844 Z M 6.5625 0 C 4.388 0 2.625 1.7627 2.625 3.9375 C 2.625 4.1186 2.6373 4.2989 2.6619 4.4772 L 0.1441 6.995 C 0.0519 7.0873 0 7.2125 0 7.343 L 0 10.0078 C 0 10.2797 0.2204 10.5 0.4922 10.5 H 3.4453 C 3.7171 10.5 3.9375 10.2797 3.9375 10.0078 V 9.5156 H 4.4297 C 4.7015 9.5156 4.9219 9.2953 4.9219 9.0234 V 8.6133 L 5.7432 7.7895 C 6.011 7.8464 6.2848 7.875 6.5625 7.875 C 8.737 7.875 10.5 6.1123 10.5 3.9375 C 10.5 1.763 8.7373 0 6.5625 0 Z M 6.5625 2.9531 C 6.5625 3.4968 7.0032 3.9375 7.5469 3.9375 C 8.0905 3.9375 8.5313 3.4968 8.5313 2.9531 C 8.5313 2.4095 8.0905 1.9688 7.5469 1.9688 C 7.0032 1.9688 6.5625 2.4095 6.5625 2.9531 Z"></path><text x="139.75830078125" y="19.25" style="font-family: &quot;Open Sans&quot;, sans-serif; font-size: 13px; font-weight: bold; fill: rgb(153, 153, 153);">int</text></svg><svg x="226.388671875" y="64"><rect x="0" y="0" width="167.91259765625" height="32" fill="#F2F2F2"></rect><text x="10" y="19.25" style="font-family: &quot;Open Sans&quot;, sans-serif; font-size: 13px; fill: rgb(111, 111, 111);">blog_id</text><text x="115.05322265625" y="19.25" style="font-family: &quot;Open Sans&quot;, sans-serif; font-size: 13px; fill: rgb(153, 153, 153);">integer</text></svg><svg x="226.388671875" y="96"><rect x="0" y="0" width="167.91259765625" height="32" fill="#F2F2F2"></rect><text x="10" y="19.25" style="font-family: &quot;Open Sans&quot;, sans-serif; font-size: 13px; fill: rgb(111, 111, 111);">created_at</text><text x="130.8017578125" y="19.25" style="font-family: &quot;Open Sans&quot;, sans-serif; font-size: 13px; fill: rgb(153, 153, 153);">date</text></svg><svg x="226.388671875" y="128"><rect x="0" y="0" width="167.91259765625" height="32" fill="#F2F2F2"></rect><text x="10" y="19.25" style="font-family: &quot;Open Sans&quot;, sans-serif; font-size: 13px; fill: rgb(111, 111, 111);">post</text><text x="134.54052734375" y="19.25" style="font-family: &quot;Open Sans&quot;, sans-serif; font-size: 13px; fill: rgb(153, 153, 153);">text</text></svg></svg>